IKResults
version=1
nRows=9
nColumns=24
inDegrees=yes

Units are S.I. units (second, meters, Newtons, ...)
Angles are in degrees.

endheader
time	pelvis_tilt	pelvis_list	pelvis_rotation	pelvis_tx	pelvis_ty	pelvis_tz	hip_flexion_r	hip_adduction_r	hip_rotation_r	knee_angle_r	ankle_angle_r	subtalar_angle_r	mtp_angle_r	hip_flexion_l	hip_adduction_l	hip_rotation_l	knee_angle_l	ankle_angle_l	subtalar_angle_l	mtp_angle_l	lumbar_extension	lumbar_bending	lumbar_rotation
      5.00000000	      3.99854784	      0.65260836	      6.90768557	      0.93958979	      1.06225241	      1.57457277	      2.55501404	      2.65122824	     -7.91406139	     -8.92868252	      5.56375938	      9.97771331	    -45.08074801	     10.07618755	     -2.33740029	      6.86826695	    -50.46385821	     -5.76580837	     13.20111286	    -32.93411701	    -13.49851788	      0.81469247	     -3.00430168
      5.01000000	      3.78214374	      1.07062054	      6.01959205	      0.93881878	      1.06443262	      1.57574830	      1.12787917	      2.28958942	     -8.03524316	     -7.77470984	      5.75680943	     11.27952573	    -45.43165626	     11.55262439	     -1.78185050	      6.19189867	    -48.71826516	     -5.16416710	     11.99425560	    -32.88998070	    -13.46683606	      0.12744163	     -1.98954665
      5.02000000	      3.55703018	      1.40565857	      5.11531212	      0.93802922	      1.06608929	      1.57696162	     -0.27016828	      2.00408579	     -7.99814910	     -6.63395157	      6.06205268	     12.46652415	    -45.70952098	     12.90452548	     -1.34422281	      5.60205140	    -46.57317490	     -4.74842978	     10.69825956	    -32.94633764	    -13.40349236	     -0.47204751	     -0.97192916
      5.03000000	      3.30850208	      1.69333154	      4.22790310	      0.93724266	      1.06718539	      1.57813281	     -1.53042405	      1.70123923	     -8.40142862	     -5.67466023	      6.42019941	     14.12837451	    -46.44380514	     14.13887077	     -0.97306678	      5.15192534	    -44.05489150	     -4.41709426	      9.44772355	    -33.52612817	    -13.29274360	     -1.01444160	      0.02690155
      5.04000000	      3.06961310	      1.86549743	      3.35469273	      0.93643958	      1.06770958	      1.57936967	     -2.83075223	      1.55495040	     -8.29956692	     -4.64290507	      6.72889709	     15.12750256	    -46.64925239	     15.23577222	     -0.73811207	      4.88068060	    -41.20956692	     -4.33685723	      7.92424044	    -33.78217973	    -13.17325518	     -1.43047097	      1.01313683
      5.05000000	      2.82499608	      1.98789928	      2.53879095	      0.93568061	      1.06764982	      1.58053708	     -4.01568762	      1.40573181	     -8.70349897	     -3.80291597	      7.24573337	     16.60088625	    -48.36955659	     16.23778269	     -0.58252266	      4.73654859	    -38.13191873	     -3.96062430	      6.34843525	    -39.06975060	    -13.02879493	     -1.77919854	      1.92391152
      5.06000000	      2.59410163	      2.00716058	      1.75193937	      0.93495328	      1.06700184	      1.58170347	     -5.17565280	      1.36407373	     -8.94652191	     -3.04341693	      7.59595759	     18.00516006	    -48.26921051	     17.08708609	     -0.54899473	      4.79074698	    -34.77904062	     -4.06109564	      4.70369237	    -39.53083836	    -12.88222717	     -2.00640271	      2.82376985
      5.07000000	      2.42509828	      1.91216131	      1.03926161	      0.93430079	      1.06583454	      1.58281690	     -6.33132271	      1.42647798	     -9.35054198	     -2.44097898	      8.14975537	     19.66977655	    -48.26364344	     17.77825848	     -0.66708114	      4.99392298	    -31.25489997	     -4.27785927	      3.06311959	    -40.94212200	    -12.78972690	     -2.08948823	      3.65462110
      5.08000000	      2.31924870	      1.78844055	      0.38384777	      0.93373657	      1.06421072	      1.58385496	     -7.49969789	      1.50884266	     -9.74057631	     -1.96088879	      8.71701475	     21.17356628	    -48.36055082	     18.28206447	     -0.82822847	      5.36486990	    -27.55883476	     -4.35872390	      1.37776952	    -44.74419818	    -12.75774684	     -2.12932769	      4.41511360
